PathFileType	4	(X/Y/Z)	E:\Qualisys_Data\Carbon_Farble_Plate\Data\Amateur_Runner\S1\T1\S1T1V13_c3d.trc
DataRate	CameraRate	NumFrames	NumMarkers	Units	OrigDataRate	OrigDataStartFrame	OrigNumFrames
200.000000	200.000000	4	39	mm	200.000000	82	328
Frame#	Time	LSHO			RSHO			LICST			RICST			LASIS			LHEEL			RASIS			LTROC			RTROC			SACR			LTH1			LSK4			LTH2			LTH3			RHM5			LSK2			LTH4			RTH1			LTOE			RTH2			RTH3			RTH4			LLEP			RLEP			LSK1			LSK3			RSK1			LHM5			RSK2			LFT1			RSK3			RSK4			LLME			RLME			RTOE			RHEEL			RFT1			RFT2			LFT2			
		X1	Y1	Z1	X2	Y2	Z2	X3	Y3	Z3	X4	Y4	Z4	X5	Y5	Z5	X6	Y6	Z6	X7	Y7	Z7	X8	Y8	Z8	X9	Y9	Z9	X10	Y10	Z10	X11	Y11	Z11	X12	Y12	Z12	X13	Y13	Z13	X14	Y14	Z14	X15	Y15	Z15	X16	Y16	Z16	X17	Y17	Z17	X18	Y18	Z18	X19	Y19	Z19	X20	Y20	Z20	X21	Y21	Z21	X22	Y22	Z22	X23	Y23	Z23	X24	Y24	Z24	X25	Y25	Z25	X26	Y26	Z26	X27	Y27	Z27	X28	Y28	Z28	X29	Y29	Z29	X30	Y30	Z30	X31	Y31	Z31	X32	Y32	Z32	X33	Y33	Z33	X34	Y34	Z34	X35	Y35	Z35	X36	Y36	Z36	X37	Y37	Z37	X38	Y38	Z38	X39	Y39	Z39	

83	0.41	-1249.892211914062	1550.293823242188	-579.7872924804688	-1180.086303710938	1546.571899414062	-265.7433166503906	-1223.101196289062	1076.550659179688	-541.2259521484375	-1215.767944335938	1094.262329101562	-247.5207061767578	-1179.762939453125	1038.2626953125	-514.357421875	-1053.007690429688	104.4376602172852	-442.5880737304688	-1180.972778320312	1043.62109375	-253.2986755371094	-1274.041259765625	949.7684326171876	-562.3194580078125	-1307.12353515625	971.807373046875	-223.8233489990234	-1338.00537109375	1103.306518554688	-389.48193359375	-1118.43994140625	823.7562255859375	-532.597900390625	-1098.571899414062	269.0287475585938	-479.8260498046875	-1192.057983398438	798.1505737304688	-569.7503662109375	-1092.80322265625	724.1757202148438	-518.0515747070312	-1710.283935546875	142.8527526855469	-246.3634948730469	-1118.208740234375	363.8683471679688	-518.0029296875	-1172.423583984375	701.7379760742188	-547.9110107421875	-1223.814453125	814.0255737304688	-247.1925201416016	-816.1826171875	200.9697570800781	-462.1875610351562	-1295.627563476562	836.5742797851562	-220.0355377197266	-1257.567504882812	719.4057006835938	-257.853515625	-1331.1611328125	744.3726196289062	-235.993896484375	-1086.406005859375	577.0093383789062	-502.2311706542969	-1370.98193359375	574.9381103515625	-270.5752563476562	-1035.30126953125	376.5411987304688	-515.57666015625	-1023.269470214844	276.1497497558594	-510.3045349121094	-1510.474487304688	441.023681640625	-248.1229400634766	-868.270751953125	154.2144317626953	-518.2241821289062	-1566.6494140625	497.5598754882812	-263.419921875	-1032.490966796875	87.46315002441406	-419.112548828125	-1579.076171875	366.0928344726562	-257.16064453125	-1633.165161132812	423.4194030761719	-283.1336669921875	-1017.50830078125	145.272216796875	-497.9438781738281	-1696.855346679688	293.7075500488281	-258.5997314453125	-1654.519775390625	93.86781311035156	-319.5138854980469	-1747.719970703125	329.3492431640625	-302.7288513183594	-1768.673217773438	309.9588623046875	-338.1350402832031	-1774.114990234375	314.2850341796875	-279.9872741699219	-1036.176635742188	76.25076293945312	-470.8910827636719
84	0.415	-1233.896484375	1547.947265625	-581.0263061523438	-1164.637573242188	1545.137084960938	-267.1392517089844	-1208.493408203125	1074.1171875	-541.654541015625	-1200.636596679688	1092.889892578125	-247.5896301269531	-1164.923583984375	1036.567626953125	-514.5228881835938	-1039.2802734375	102.9490127563477	-442.5936889648438	-1165.6455078125	1042.226928710938	-253.5059204101562	-1259.366455078125	947.4283447265624	-561.9434814453125	-1290.694946289062	969.16845703125	-223.6235961914062	-1323.208618164062	1101.488037109375	-389.1990661621094	-1104.421875	821.841796875	-532.8051147460938	-1084.6279296875	267.3372497558594	-479.7430114746094	-1177.54296875	796.1220092773438	-571.0889282226562	-1078.514404296875	722.4007568359375	-519.5747680664062	-1698.644653320312	148.1201477050781	-245.1235504150391	-1103.710815429688	362.0379028320312	-517.8753051757812	-1157.807250976562	699.7472534179688	-547.5071411132812	-1206.476928710938	812.4902954101562	-248.7354736328125	-802.38623046875	198.5232238769531	-462.1521606445312	-1277.0205078125	833.1553344726562	-220.0648651123047	-1239.22119140625	717.0958862304688	-260.0940856933594	-1311.97998046875	741.587890625	-235.8844757080078	-1072.476318359375	575.4829711914062	-502.1784973144531	-1351.535400390625	571.3328857421875	-270.8131713867188	-1020.791625976562	374.7804260253906	-514.7236938476562	-1009.076293945312	274.0983581542969	-509.2656860351562	-1493.720092773438	441.1622314453125	-247.8215942382812	-855.1724243164062	152.3741760253906	-517.7584838867188	-1549.188720703125	499.0517578125	-263.8267211914062	-1019.550659179688	84.97747802734375	-418.4198303222656	-1564.648559570312	369.5901794433594	-255.5797424316406	-1616.91357421875	426.0355224609375	-282.7732849121094	-1005.053833007812	143.8826599121094	-497.7515869140625	-1682.476196289062	298.5968933105469	-256.5314636230469	-1643.2548828125	98.4812240600586	-319.0888977050781	-1735.907470703125	335.5016479492188	-302.0462341308594	-1756.096801757812	315.2812805175781	-337.4264831542969	-1761.102783203125	319.111083984375	-279.2734069824219	-1023.748107910156	74.06423950195312	-469.7899169921875
85	0.42	-1218.6279296875	1545.447509765625	-582.517578125	-1149.256958007812	1543.6611328125	-268.2488708496094	-1193.265747070312	1072.145874023438	-541.65673828125	-1185.546142578125	1091.003173828125	-247.54736328125	-1150.097534179688	1034.497802734375	-514.6116333007812	-1026.679321289062	100.2967681884766	-441.4810180664062	-1150.36572265625	1040.469482421875	-253.8141021728516	-1244.599609375	945.928955078125	-561.84375	-1274.479614257812	966.6467895507812	-222.9794769287109	-1308.161743164062	1099.305908203125	-389.2176208496094	-1090.331665039062	820.7722778320312	-533.6525268554688	-1071.349975585938	264.4402770996094	-479.4743041992188	-1164.095581054688	794.7679443359375	-570.513671875	-1063.529174804688	720.9034423828125	-520.5975952148438	-1686.372314453125	152.1536102294922	-244.5294952392578	-1089.44970703125	359.9382019042969	-517.9121704101562	-1142.834106445312	698.4909057617188	-547.7642822265625	-1188.956909179688	810.0528564453125	-250.7299652099609	-789.72509765625	195.4027557373047	-461.8968200683594	-1259.277099609375	830.2259521484375	-220.3796997070312	-1220.635131835938	714.7447509765625	-261.7146301269531	-1293.523559570312	738.0402221679688	-236.2791900634766	-1057.927612304688	573.3318481445312	-502.0910339355469	-1332.188232421875	567.66259765625	-271.0578002929688	-1006.897888183594	372.4062194824219	-513.579345703125	-995.2964477539062	271.5957641601562	-508.5429382324219	-1477.39453125	440.739013671875	-247.8719482421875	-842.8682250976562	149.8216247558594	-517.3973388671875	-1530.882934570312	499.957275390625	-264.1929626464844	-1005.538696289062	83.05755615234375	-416.3518371582031	-1548.43310546875	371.7268371582031	-255.2031860351562	-1601.500610351562	428.8734436035156	-283.1175842285156	-992.3956298828124	141.2177581787109	-496.5444030761719	-1669.171630859375	303.1908569335938	-256.6915283203125	-1631.331298828125	102.8574295043945	-318.2275695800781	-1722.709350585938	340.1290283203125	-301.0434875488281	-1743.831298828125	320.6820373535156	-337.0060729980469	-1747.5791015625	324.309814453125	-278.8183288574219	-1011.140563964844	71.69926452636719	-468.6848754882812
86	0.425	-1203.659912109375	1542.596923828125	-584.0927124023438	-1133.457275390625	1541.7939453125	-269.62060546875	-1179.117797851562	1070.319213867188	-541.7081909179688	-1170.390747070312	1088.856201171875	-247.7519989013672	-1135.2373046875	1032.953979492188	-515.1691284179688	-1015.395080566406	97.63056182861328	-441.1353759765625	-1135.002807617188	1038.400146484375	-254.0157470703125	-1230.993896484375	943.9065551757812	-561.7994384765625	-1258.183715820312	963.7615356445312	-222.1255340576172	-1293.265014648438	1096.323974609375	-388.4751586914062	-1075.830810546875	819.901611328125	-534.0973510742188	-1058.865600585938	262.3658752441406	-479.277587890625	-1149.773559570312	793.5261840820312	-570.8189697265625	-1047.895751953125	720.2185668945312	-521.8553466796875	-1672.837524414062	157.4457550048828	-243.8128051757812	-1075.787963867188	357.5323181152344	-517.8112182617188	-1128.222534179688	697.5399169921875	-547.96435546875	-1171.340698242188	807.4918212890625	-252.0243072509766	-777.9873657226562	191.3941802978516	-461.6433715820312	-1241.409790039062	826.229736328125	-221.5818176269531	-1201.951782226562	712.289794921875	-262.8390502929688	-1274.676513671875	734.1087036132812	-236.1885986328125	-1043.858642578125	571.3733520507812	-501.9702453613281	-1312.367431640625	563.8093872070312	-271.4391174316406	-993.25634765625	369.4118041992188	-512.8101196289062	-982.6838989257812	269.0229797363281	-507.7644348144531	-1460.89501953125	440.1866760253906	-248.4640808105469	-831.8072509765625	146.5723724365234	-516.6965942382812	-1512.512817382812	500.3282165527344	-264.5951538085938	-994.2510375976562	79.8366470336914	-415.6939392089844	-1534.086181640625	372.6070251464844	-255.5948486328125	-1584.622802734375	431.1946105957031	-283.3281555175781	-980.5314331054688	138.2996520996094	-495.6990051269531	-1654.653442382812	307.6825561523438	-256.32568359375	-1619.737548828125	106.8454208374023	-318.0159301757812	-1708.182006835938	344.4739990234375	-300.3803405761719	-1730.077514648438	324.7553100585938	-336.2050476074219	-1732.855712890625	329.6176452636719	-277.873046875	-1000.038024902344	68.8675765991211	-467.6587219238281
